<svg width="100" height="100" viewBox="0 0 100 100" fill="none" xmlns="http://www.w3.org/2000/svg">
<path fill-rule="evenodd" clip-rule="evenodd" d="M50.0004 0C22.3896 0 0 22.9513 0 51.2654C0 73.9162 14.3266 93.133 34.1933 99.9119C36.6922 100.386 37.6096 98.7998 37.6096 97.4457C37.6096 96.2232 37.5632 92.1848 37.5417 87.901C23.6315 91.0022 20.6963 81.8522 20.6963 81.8522C18.4219 75.9265 15.1447 74.3509 15.1447 74.3509C10.6082 71.169 15.4866 71.2344 15.4866 71.2344C20.5076 71.5952 23.1513 76.5174 23.1513 76.5174C27.6108 84.3549 34.8483 82.0891 37.7015 80.7791C38.1503 77.4665 39.4461 75.2032 40.876 73.9239C29.7702 72.6275 18.0956 68.2317 18.0956 48.5879C18.0956 42.9907 20.0489 38.4175 23.2474 34.8273C22.7282 33.5352 21.0168 28.3218 23.7317 21.2602C23.7317 21.2602 27.9304 19.8824 37.4854 26.5152C41.4738 25.3793 45.7512 24.8097 50.0004 24.7901C54.2496 24.8097 58.5303 25.3793 62.5262 26.5152C72.0695 19.8824 76.2625 21.2602 76.2625 21.2602C78.9841 28.3218 77.2718 33.5352 76.7526 34.8273C79.9586 38.4175 81.8986 42.9907 81.8986 48.5879C81.8986 68.2784 70.2016 72.614 59.0677 73.8831C60.8611 75.4741 62.4591 78.5939 62.4591 83.3769C62.4591 90.2356 62.4012 95.7563 62.4012 97.4457C62.4012 98.81 63.3012 100.409 65.8356 99.9051C85.6916 93.1186 100 73.9086 100 51.2654C100 22.9513 77.6137 0 50.0004 0" fill="#0085FF"/>
<path fill-rule="evenodd" clip-rule="evenodd" d="M18.9367 73.6063C18.8266 73.8619 18.4358 73.9374 18.0798 73.7625C17.7171 73.5953 17.5134 73.2481 17.631 72.9925C17.7386 72.7302 18.1303 72.6581 18.4921 72.8321C18.8556 73.0002 19.0626 73.3508 18.9367 73.6063" fill="#0085FF"/>
<path fill-rule="evenodd" clip-rule="evenodd" d="M20.963 75.9224C20.7246 76.149 20.2584 76.0438 19.9421 75.6855C19.6151 75.3281 19.5538 74.8502 19.7956 74.6201C20.0415 74.3934 20.4936 74.4995 20.8214 74.8569C21.1485 75.2186 21.2122 75.6932 20.963 75.9224" fill="#0085FF"/>
<path fill-rule="evenodd" clip-rule="evenodd" d="M22.9357 78.8749C22.6294 79.0931 22.1285 78.8885 21.8188 78.4326C21.5124 77.9768 21.5124 77.43 21.8254 77.211C22.1359 76.992 22.6294 77.1889 22.9432 77.6414C23.2487 78.1041 23.2487 78.6517 22.9357 78.8749" fill="#0085FF"/>
<path fill-rule="evenodd" clip-rule="evenodd" d="M25.6335 81.7274C25.3594 82.0373 24.7757 81.9541 24.3484 81.5313C23.9113 81.1179 23.7895 80.5313 24.0644 80.2214C24.3418 79.9107 24.9289 79.9981 25.3594 80.4175C25.7933 80.8301 25.9257 81.421 25.6335 81.7274" fill="#0085FF"/>
<path fill-rule="evenodd" clip-rule="evenodd" d="M29.363 83.3836C29.2421 83.7852 28.6799 83.9677 28.1136 83.7971C27.548 83.6213 27.1779 83.151 27.2922 82.7452C27.4098 82.3411 27.9745 82.151 28.5449 82.3335C29.1096 82.5084 29.4806 82.9753 29.363 83.3836" fill="#0085FF"/>
<path fill-rule="evenodd" clip-rule="evenodd" d="M33.4533 83.691C33.4674 84.1138 32.9872 84.4644 32.3927 84.4712C31.7949 84.4856 31.3113 84.1435 31.3047 83.7275C31.3047 83.3005 31.7742 82.9532 32.372 82.9431C32.9665 82.9312 33.4533 83.2707 33.4533 83.691" fill="#0085FF"/>
<path fill-rule="evenodd" clip-rule="evenodd" d="M37.2627 83.0263C37.3339 83.4389 36.9207 83.8625 36.3304 83.9746C35.7499 84.0841 35.2126 83.8294 35.1389 83.4202C35.0669 82.9974 35.4875 82.5738 36.0671 82.4643C36.6582 82.359 37.1873 82.6069 37.2627 83.0263" fill="#0085FF"/>
</svg>
