<svg width="100" height="100" viewBox="0 0 100 100" fill="none" xmlns="http://www.w3.org/2000/svg">
<path fill-rule="evenodd" clip-rule="evenodd" d="M50 0C22.3858 0 0 22.3858 0 50C0 77.6142 22.3858 100 50 100C77.6142 100 100 77.6142 100 50C100 22.3858 77.6142 0 50 0ZM24 41.4122H35.3311V75.4574H24V41.4122ZM36.0853 30.8806C36.0118 27.5425 33.6247 25 29.7484 25C25.8721 25 23.3379 27.5425 23.3379 30.8806C23.3379 34.1496 25.7972 36.7653 29.6013 36.7653H29.6737C33.6247 36.7653 36.0853 34.1496 36.0853 30.8806ZM63.1514 40.6128C70.6078 40.6128 76.1977 45.4798 76.1977 55.937L76.1973 75.4575H64.8666V57.2433C64.8666 52.6682 63.227 49.5464 59.1251 49.5464C55.9946 49.5464 54.13 51.651 53.3111 53.6837C53.0115 54.4122 52.9379 55.4272 52.9379 56.4447V75.4584H41.6055C41.6055 75.4584 41.7548 44.6078 41.6055 41.4131H52.9379V46.2354C54.4418 43.9172 57.1353 40.6128 63.1514 40.6128Z" fill="#0085FF"/>
</svg>
