<svg width="100" height="100" viewBox="0 0 100 100" fill="none" xmlns="http://www.w3.org/2000/svg">
<path fill-rule="evenodd" clip-rule="evenodd" d="M50 100C77.6142 100 100 77.6142 100 50C100 22.3858 77.6142 0 50 0C22.3858 0 0 22.3858 0 50C0 77.6142 22.3858 100 50 100ZM50.696 47.1939C46.79 47.1939 26.666 35.7821 26.666 35.7821V34.0001C26.666 31.7921 28.458 30.0001 30.67 30.0001H70.722C72.936 30.0001 74.728 31.7921 74.728 34.0001L74.696 36.0001C74.696 36.0001 54.79 47.1939 50.696 47.1939ZM74.696 41.9999C74.696 41.9999 54.978 52.6936 50.696 52.6936C46.79 52.6936 26.696 41.9999 26.698 41.9999L26.666 65.9998C26.666 68.2078 28.46 69.9998 30.67 69.9998H70.722C72.936 69.9998 74.728 68.2078 74.728 65.9998L74.696 41.9999Z" fill="#0085FF"/>
</svg>
